HIERARCHY
ROOT Hips
{
	OFFSET 0.00000 0.00000 0.00000
	CHANNELS 6 Xposition Yposition Zposition Zrotation Yrotation Xrotation 
	JOINT LHipJoint
	{
		OFFSET 0 0 0
		CHANNELS 3 Zrotation Yrotation Xrotation
		JOINT LeftHip
		{
			OFFSET 1.53139 -1.83434 0.76626
			CHANNELS 3 Zrotation Yrotation Xrotation
			JOINT LeftKnee
			{
				OFFSET 2.56112 -7.03663 0.00000
				CHANNELS 3 Zrotation Yrotation Xrotation
				JOINT LeftAnkle
				{
					OFFSET 2.59983 -7.14299 0.00000
					CHANNELS 3 Zrotation Yrotation Xrotation
					JOINT LeftToe
					{
						OFFSET 0.13742 -0.37757 2.00054
						CHANNELS 3 Zrotation Yrotation Xrotation
						End Site
						{
							OFFSET 0.00000 -0.00000 1.02897
						}
					}
				}
			}
		}
	}
	JOINT RHipJoint
	{
		OFFSET 0 0 0
		CHANNELS 3 Zrotation Yrotation Xrotation
		JOINT RightHip
		{
			OFFSET -1.40122 -1.83435 0.76627
			CHANNELS 3 Zrotation Yrotation Xrotation
			JOINT RightKnee
			{
				OFFSET -2.54052 -6.98003 0.00000
				CHANNELS 3 Zrotation Yrotation Xrotation
				JOINT RightAnkle
				{
					OFFSET -2.63179 -7.23079 0.00000
					CHANNELS 3 Zrotation Yrotation Xrotation
					JOINT RightToe
					{
						OFFSET -0.24131 -0.66299 2.03908
						CHANNELS 3 Zrotation Yrotation Xrotation
						End Site
						{
							OFFSET -0.00000 -0.00000 1.07391
						}
					}
				}
			}
		}
	}
	JOINT lowerback
	{
		OFFSET 0 0 0
		CHANNELS 3 Zrotation Yrotation Xrotation
		JOINT Chest
		{
			OFFSET 0.01174 2.10302 -0.29778
			CHANNELS 3 Zrotation Yrotation Xrotation
			JOINT Chest2
			{
				OFFSET 0.00772 2.13227 -0.01247
				CHANNELS 3 Zrotation Yrotation Xrotation
				JOINT lowerneck
				{
					OFFSET 0 0 0
					CHANNELS 3 Zrotation Yrotation Xrotation
					JOINT Neck
					{
						OFFSET -0.09219 1.60848 0.31481
						CHANNELS 3 Zrotation Yrotation Xrotation
						JOINT Head
						{
							OFFSET 0.13974 1.65456 -0.31134
							CHANNELS 3 Zrotation Yrotation Xrotation
							End Site
							{
								OFFSET 0.04742 1.69515 -0.14578
							}
						}
					}
				}
				JOINT LeftCollar
				{
					OFFSET 0 0 0
					CHANNELS 3 Zrotation Yrotation Xrotation
					JOINT LeftShoulder
					{
						OFFSET 3.24909 1.02882 -0.23993
CHANNELS 3 Zrotation Xrotation Yrotation
						JOINT LeftElbow
						{
OFFSET 0 -5.329550 -0.000000
CHANNELS 3 Zrotation Xrotation Yrotation
							JOINT LeftWrist
							{
OFFSET 0 -3.692320 -0.000000
CHANNELS 3 Zrotation Xrotation Yrotation
								JOINT lhand
								{
									OFFSET 0 0 0
CHANNELS 3 Zrotation Xrotation Yrotation
									JOINT LFingers
									{
OFFSET 0 -0.536600 -0.000000
CHANNELS 3 Zrotation Xrotation Yrotation
										End Site
										{
OFFSET 0 -0.432620 -0.000000
										}
									}
								}
								JOINT LThumb
								{
OFFSET 0 0.000000 0.000000
CHANNELS 3 Zrotation Xrotation Yrotation
									End Site
									{
OFFSET 0 -0.439220 0.439220
									}
								}
							}
						}
					}
				}
				JOINT RightCollar
				{
					OFFSET 0 0 0
					CHANNELS 3 Zrotation Yrotation Xrotation
					JOINT RightShoulder
					{
						OFFSET -3.21387 0.93002 -0.34594
CHANNELS 3 Zrotation Xrotation Yrotation
						JOINT RightElbow
						{
OFFSET 0 -5.234310 0.000000
CHANNELS 3 Zrotation Xrotation Yrotation
							JOINT RightWrist
							{
OFFSET 0 -3.553010 -0.000000
CHANNELS 3 Zrotation Xrotation Yrotation
								JOINT rhand
								{
									OFFSET 0 0 0
CHANNELS 3 Zrotation Xrotation Yrotation
									JOINT RFingers
									{
OFFSET 0 -0.772520 -0.000000
CHANNELS 3 Zrotation Xrotation Yrotation
										End Site
										{
OFFSET 0 -0.622830 -0.000000
										}
									}
								}
								JOINT RThumb
								{
OFFSET 0 0.000000 0.000000
CHANNELS 3 Zrotation Xrotation Yrotation
									End Site
									{
OFFSET 0 -0.632340 0.632340
									}
								}
							}
						}
					}
				}
			}
		}
	}
}
MOTION
Frames: 4
Frame Time: 0.008333333333333333
11.808700 17.815000 -19.614200 7.298000 4.078100 0.696100 0.000000 0.000000 0.000000 -30.628200 3.035800 11.533400 0.000000 -0.000000 -0.000000 -0.155200 -8.808400 -2.531400 0.090500 -1.940600 -5.341500 0.000000 0.000000 0.000000 13.940300 4.047600 -29.990200 -2.722100 -10.231000 29.728100 -0.044800 -3.109500 -6.314600 -0.154600 -2.533600 6.982700 -6.973300 -0.669200 11.167500 -0.959500 -1.775400 1.507900 3.182200 -0.765600 -4.501700 -12.696700 -7.055800 -20.859200 10.020200 -8.562200 23.724700 4.451700 -3.740500 12.324400 -0.000000 0.000000 0.000000 9.897900 -5.645200 -25.239400 21.907900 -32.872700 6.535800 21.802000 12.464000 -25.437300 0.000000 0.000000 0.000000 -7.125000 0.000000 0.000000 -8.724900 56.891500 2.555900 -0.000000 0.000000 0.000000 0.504300 5.005200 11.615900 -15.626600 -25.011700 -3.486600 -15.761500 4.669400 -8.383200 0.000000 0.000000 0.000000 7.125000 0.000000 -0.000000 8.023300 21.308300 4.603700
11.805640 17.814544 -19.532814 7.373331 4.053033 0.729956 0.000000 0.000000 0.000000 -30.708674 3.151107 11.767791 0.000000 0.000000 0.000000 -0.139769 -8.596732 -2.719433 0.094407 -1.981683 -5.455114 0.000000 0.000000 0.000000 13.883981 4.305625 -29.881143 -2.527686 -9.883581 28.604392 -0.051050 -3.278522 -6.694899 -0.113126 -2.149981 5.920975 -7.049412 -0.661843 11.116455 -0.973303 -1.772340 1.483680 3.208960 -0.762475 -4.497273 -12.774635 -7.051633 -20.787906 10.093838 -8.559270 23.708358 4.494737 -3.739393 12.311574 0.000000 0.000000 0.000000 9.932473 -5.682051 -25.316879 21.944100 -32.913783 6.555463 21.480169 12.097895 -24.922292 0.000000 0.000000 0.000000 -7.125000 0.000000 0.000000 -8.837342 56.296538 2.460711 0.000000 0.000000 0.000000 0.523051 5.110936 11.555479 -15.596325 -24.970226 -3.473774 -15.670869 4.690690 -8.363993 0.000000 0.000000 0.000000 7.125000 0.000000 0.000000 8.089190 21.332325 4.637817
11.804181 17.813877 -19.451852 7.436816 4.026033 0.763813 0.000000 0.000000 0.000000 -30.778784 3.268983 12.002363 0.000000 0.000000 0.000000 -0.126967 -8.430602 -2.889518 0.100579 -2.044553 -5.628891 0.000000 0.000000 0.000000 13.826877 4.545943 -29.800400 -2.350677 -9.558069 27.559581 -0.061320 -3.367831 -7.101758 -0.081442 -1.832929 5.044360 -7.097664 -0.667388 11.075623 -0.978887 -1.783421 1.461514 3.230945 -0.766723 -4.495474 -12.846829 -7.051032 -20.724952 10.139253 -8.553893 23.690505 4.526019 -3.739918 12.297659 0.000000 0.000000 0.000000 9.952934 -5.720565 -25.381788 21.955009 -32.926191 6.561377 21.230888 11.780923 -24.529783 0.000000 0.000000 0.000000 -7.125000 0.000000 0.000000 -8.927998 55.842751 2.388488 0.000000 0.000000 0.000000 0.528688 5.196064 11.529264 -15.565717 -24.928268 -3.460857 -15.630156 4.780453 -8.219657 0.000000 0.000000 0.000000 7.125000 0.000000 0.000000 8.122747 21.482385 4.629539
11.804572 17.812965 -19.371378 7.486624 3.996799 0.797669 0.000000 0.000000 0.000000 -30.836926 3.389824 12.237144 0.000000 0.000000 0.000000 -0.117201 -8.317052 -3.038877 0.109369 -2.132580 -5.872136 0.000000 0.000000 0.000000 13.768865 4.765814 -29.752350 -2.193765 -9.257854 26.605871 -0.076230 -3.365096 -7.539288 -0.061063 -1.592744 4.381491 -7.113745 -0.687832 11.046585 -0.974980 -1.810832 1.441721 3.247417 -0.779484 -4.496711 -12.912393 -7.054548 -20.671628 10.152079 -8.545689 23.670907 4.543729 -3.742327 12.282489 0.000000 0.000000 0.000000 9.957101 -5.760997 -25.432182 21.936714 -32.905486 6.551415 21.065382 11.520684 -24.278725 0.000000 0.000000 0.000000 -7.125000 0.000000 0.000000 -8.993497 55.551976 2.342781 0.000000 0.000000 0.000000 0.519182 5.257397 11.542546 -15.534725 -24.885752 -3.447835 -15.647085 4.949279 -7.930836 0.000000 0.000000 0.000000 7.125000 0.000000 0.000000 8.118971 21.777978 4.572309
